HIERARCHY
ROOT Hips
{
 OFFSET 0.000000 0.000000 0.000000
 CHANNELS 6 Xposition Yposition Zposition Yrotation Xrotation Zrotation
 JOINT Chest
 {
  OFFSET 0.000000 14.374500 -0.011500
  CHANNELS 3 Yrotation Xrotation Zrotation
  JOINT Chest2
  {
   OFFSET 0.000000 9.203400 0.023400
   CHANNELS 3 Yrotation Xrotation Zrotation
   JOINT Chest3
   {
    OFFSET 0.000000 9.162700 0.000000
    CHANNELS 3 Yrotation Xrotation Zrotation
    JOINT Chest4
    {
     OFFSET 0.000000 9.153300 0.000000
     CHANNELS 3 Yrotation Xrotation Zrotation
     JOINT Neck
     {
      OFFSET 0.000000 13.353600 0.000000
      CHANNELS 3 Yrotation Xrotation Zrotation
      JOINT Head
      {
       OFFSET 0.000000 8.573800 0.049400
       CHANNELS 3 Yrotation Xrotation Zrotation
       End Site
       {
        OFFSET 0.000000 16.219200 0.026100
       }
      }
     }
     JOINT RightCollar
     {
      OFFSET -2.497100 8.876100 0.000000
      CHANNELS 3 Yrotation Xrotation Zrotation
      JOINT RightShoulder
      {
       OFFSET -12.289200 0.000000 0.000000
       CHANNELS 3 Yrotation Xrotation Zrotation
       JOINT RightElbow
       {
        OFFSET 0.000000 -28.194900 0.000000
        CHANNELS 3 Yrotation Xrotation Zrotation
        JOINT RightWrist
        {
         OFFSET 0.000000 -23.009700 0.007900
         CHANNELS 3 Yrotation Xrotation Zrotation
         End Site
         {
          OFFSET 0.000000 -17.151500 0.000000
         }
        }
       }
      }
     }
     JOINT LeftCollar
     {
      OFFSET 2.497100 8.876100 0.000000
      CHANNELS 3 Yrotation Xrotation Zrotation
      JOINT LeftShoulder
      {
       OFFSET 12.289200 0.000000 0.000000
       CHANNELS 3 Yrotation Xrotation Zrotation
       JOINT LeftElbow
       {
        OFFSET 0.000000 -28.194900 0.000000
        CHANNELS 3 Yrotation Xrotation Zrotation
        JOINT LeftWrist
        {
         OFFSET 0.000000 -23.009700 0.007900
         CHANNELS 3 Yrotation Xrotation Zrotation
         End Site
         {
          OFFSET 0.000000 -17.151500 0.000000
         }
        }
       }
      }
     }
    }
   }
  }
 }
 JOINT RightHip
 {
  OFFSET -11.777600 0.056700 0.005700
  CHANNELS 3 Yrotation Xrotation Zrotation
  JOINT RightKnee
  {
   OFFSET 0.000000 -39.966000 -0.004200
   CHANNELS 3 Yrotation Xrotation Zrotation
   JOINT RightAnkle
   {
    OFFSET 0.000000 -41.981900 0.027400
    CHANNELS 3 Yrotation Xrotation Zrotation
    JOINT RightToe
    {
     OFFSET 0.000000 -9.910600 16.950100
     CHANNELS 3 Yrotation Xrotation Zrotation
     End Site
     {
      OFFSET 0.000000 -1.461000 6.191600
     }
    }
   }
  }
 }
 JOINT LeftHip
 {
  OFFSET 11.777600 0.056700 0.005700
  CHANNELS 3 Yrotation Xrotation Zrotation
  JOINT LeftKnee
  {
   OFFSET 0.000000 -39.966000 -0.004200
   CHANNELS 3 Yrotation Xrotation Zrotation
   JOINT LeftAnkle
   {
    OFFSET 0.000000 -41.981900 0.027400
    CHANNELS 3 Yrotation Xrotation Zrotation
    JOINT LeftToe
    {
     OFFSET 0.000000 -9.910600 16.950100
     CHANNELS 3 Yrotation Xrotation Zrotation
     End Site
     {
      OFFSET 0.000000 -1.461000 6.191600
     }
    }
   }
  }
 }
}
MOTION
Frames: 16
Frame Time: 0.008333
0.724024 130.451648 52.970850 176.127983 -49.938316 -3.133585 3.418620 27.925234 3.431461 0.475526 5.053598 0.475956 0.782536 7.930640 0.774762 2.566163 22.635455 2.579414 -0.488948 16.460317 -1.486496 -0.175325 -8.445049 -1.445023 1.085364 -4.252733 -0.592826 6.998071 -16.570142 -5.125553 13.388773 -64.753311 -2.592751 14.827389 3.405761 -36.957779 -9.978483 -6.392497 -0.020758 0.680737 -16.529816 -0.545263 8.853429 -55.254180 -27.447611 -4.187291 -25.040176 44.809154 6.054086 -27.824885 1.349689 -78.528855 83.824540 -81.803501 0.519505 -25.924788 9.302558 0.005092 0.006614 0.002977 -0.416815 -22.892433 -2.699958 107.863875 78.068800 116.355195 5.462433 -17.125681 -5.619212 0.006398 -0.003022 0.003741
0.723979 130.453543 52.967336 176.126794 -49.927370 -3.136444 3.394404 27.982275 3.409688 0.472026 5.071602 0.473420 0.764485 7.983128 0.766489 2.556109 22.642431 2.561339 -0.628770 16.357790 -1.461103 -0.327143 -8.554887 -1.386148 1.126722 -4.246090 -0.634596 7.089333 -16.476352 -5.060887 13.609139 -65.501687 -3.087478 14.807933 2.440114 -37.654631 -9.948777 -6.341365 -0.038944 0.675309 -16.368405 -0.659285 9.174648 -56.359537 -27.407301 -4.424358 -25.248095 45.068992 6.053357 -27.834032 1.336250 -78.435320 83.826792 -81.702697 0.516441 -25.915901 9.297098 0.010230 0.003692 0.005981 -0.447801 -22.913125 -2.677959 107.899043 78.078662 116.368362 5.455991 -17.096714 -5.610646 0.003844 -0.004387 0.002248
0.722995 130.455642 52.963410 176.127356 -49.916465 -3.137869 3.376045 28.043328 3.386972 0.469942 5.091559 0.471421 0.760954 8.012621 0.763141 2.539302 22.677800 2.544973 -0.761068 16.239979 -1.427234 -0.472894 -8.680757 -1.320036 1.151834 -4.230193 -0.663777 7.157596 -16.369888 -4.982295 14.139926 -66.377786 -3.899297 14.828422 1.704719 -38.259668 -9.924588 -6.280590 -0.050045 0.729602 -16.200219 -0.782805 9.512825 -57.571390 -27.456407 -4.548596 -25.321878 45.215171 6.052103 -27.841970 1.318180 -78.339503 83.839404 -81.605361 0.507627 -25.913731 9.299201 0.014492 -0.001363 0.008473 -0.481703 -22.934611 -2.657681 107.930965 78.088170 116.374106 5.446518 -17.061394 -5.600747 0.003108 -0.005902 0.001817
0.721826 130.458416 52.958609 176.126055 -49.906970 -3.137692 3.367881 28.109670 3.367920 0.469780 5.112966 0.469885 0.760448 8.044181 0.760599 2.531458 22.714661 2.531873 -0.886061 16.107455 -1.386244 -0.612475 -8.821914 -1.248246 1.154493 -4.202521 -0.680840 7.194039 -16.255515 -4.888923 15.098056 -67.349611 -5.128225 14.877460 1.211288 -38.763930 -9.904614 -6.207165 -0.048304 0.886488 -16.029291 -0.916488 9.973946 -58.862005 -27.740051 -4.623416 -25.278559 45.263647 6.050468 -27.840750 1.284718 -78.105517 83.855840 -81.358493 0.510933 -25.912959 9.292829 0.015295 -0.002380 0.008943 -0.492099 -22.947758 -2.658276 107.866379 78.092467 116.308142 5.438359 -16.998949 -5.590713 -0.000569 0.004654 -0.000332
0.719576 130.460148 52.953946 176.129108 -49.889400 -3.136978 3.363169 28.170924 3.348955 0.471185 5.134715 0.468893 0.762535 8.076109 0.758936 2.531345 22.751242 2.522240 -1.000640 15.963428 -1.342715 -0.741549 -8.974808 -1.176292 1.135814 -4.160909 -0.690554 7.185966 -16.132157 -4.776349 16.557421 -68.372885 -6.830438 14.933391 0.890329 -39.164518 -9.878448 -6.119745 -0.030886 1.167644 -15.856963 -1.057944 10.652326 -60.216579 -28.380596 -4.700557 -25.133587 45.243553 6.042597 -27.839396 1.222824 -77.725893 83.883704 -80.969698 0.546725 -25.917643 9.287914 0.002325 0.000637 0.001359 -0.499383 -22.966277 -2.668129 107.786049 78.101257 116.231738 5.446063 -16.959776 -5.594727 -0.000552 0.002255 -0.000322
0.721652 130.459968 52.950673 176.124597 -49.857547 -3.148108 3.377840 28.216896 3.353952 0.473443 5.156135 0.468450 0.765930 8.107453 0.758144 2.535397 22.786716 2.515798 -1.052179 15.806061 -1.312342 -0.902449 -9.128322 -1.088676 1.100227 -4.104210 -0.702260 7.119320 -15.999613 -4.636473 18.501146 -69.414095 -8.982447 14.993479 0.681417 -39.452326 -9.835720 -6.024709 -0.001431 1.561686 -15.680672 -1.196962 11.555645 -61.608155 -29.400603 -4.788106 -24.931661 45.182084 6.036604 -27.868506 1.221288 -77.449267 83.866221 -80.673495 0.551388 -25.898463 9.274382 0.017811 -0.002920 0.010413 -0.505891 -22.999197 -2.656068 107.677731 78.121797 116.131987 5.459030 -16.909863 -5.598139 -0.000090 -0.000902 -0.000053
0.720206 130.462683 52.943288 176.127736 -49.836856 -3.149646 3.383652 28.275757 3.347935 0.475765 5.176212 0.468327 0.769397 8.136791 0.757970 2.540301 22.819677 2.511467 -1.104384 15.651718 -1.287333 -1.013425 -9.289712 -1.022585 1.049240 -4.034886 -0.725656 6.990709 -15.856630 -4.465161 20.846210 -70.455665 -11.508039 15.063567 0.539018 -39.620046 -9.769640 -5.931812 0.034893 2.036385 -15.497572 -1.326338 12.591711 -63.008639 -30.702650 -4.872431 -24.721198 45.102652 6.022931 -27.875758 1.189848 -77.170783 83.886825 -80.395405 0.547348 -25.901875 9.276598 0.012716 -0.005346 0.007435 -0.518698 -23.023665 -2.666613 107.635388 78.116521 116.085121 5.455434 -16.869415 -5.595269 -0.002851 -0.001968 -0.001667
0.719670 130.463933 52.935908 176.127352 -49.802886 -3.151639 3.387936 28.281952 3.348011 0.480620 5.236178 0.466381 0.772188 8.163107 0.758146 2.543815 22.849107 2.508383 -1.184950 15.501255 -1.258936 -1.026088 -9.446453 -0.997678 0.986533 -3.961147 -0.764278 6.802336 -15.696607 -4.264574 23.524642 -71.486242 -14.345977 15.152673 0.414143 -39.682623 -9.676104 -5.851780 0.077624 2.558019 -15.309688 -1.448421 13.703290 -64.396958 -32.177196 -4.970735 -24.516685 44.997077 6.010578 -27.900510 1.167745 -76.906454 83.883222 -80.125141 0.551524 -25.895878 9.275452 0.012895 -0.007576 0.007539 -0.539889 -23.064781 -2.671622 107.595087 78.127682 116.040253 5.464257 -16.814183 -5.602288 -0.001416 -0.008178 -0.000828
0.718502 130.464743 52.927211 176.132674 -49.760289 -3.154625 3.396552 28.345891 3.346405 0.480114 5.231433 0.467447 0.774373 8.186504 0.758657 2.546106 22.875189 2.506537 -1.228191 15.355196 -1.236884 -1.000140 -9.582893 -0.982965 0.917284 -3.891094 -0.816694 6.555488 -15.516248 -4.040973 26.531665 -72.494452 -17.485571 15.260272 0.286595 -39.678103 -9.557665 -5.794132 0.127734 3.101412 -15.126990 -1.571582 14.870741 -65.760075 -33.743431 -5.118924 -24.301632 44.858783 6.009567 -27.936298 1.138609 -76.709436 83.875888 -79.914556 0.557346 -25.892059 9.281142 0.012683 -0.013061 0.007415 -0.570980 -23.118288 -2.675076 107.612660 78.136761 116.044769 5.463272 -16.760924 -5.608687 0.000452 -0.011265 0.000264
0.717822 130.456314 52.924734 176.144594 -49.661805 -3.165901 3.398514 28.359182 3.345373 0.480317 5.224427 0.469204 0.776393 8.207413 0.759400 2.548467 22.898374 2.505686 -1.195834 15.252302 -1.201341 -0.974651 -9.725490 -0.981501 0.844294 -3.829175 -0.880266 6.256753 -15.318427 -3.803209 29.874101 -73.464188 -20.936146 15.378628 0.162103 -39.643053 -9.421960 -5.765435 0.184473 3.639918 -14.960920 -1.699895 16.036963 -67.093354 -35.305713 -5.322459 -24.061267 44.700506 6.036315 -28.030659 1.076577 -76.503767 83.872423 -79.655975 0.589597 -25.894621 9.274321 0.009386 -0.011518 0.005487 -0.639169 -23.232600 -2.674102 107.674476 78.131442 116.066269 5.475718 -16.733156 -5.613075 -0.003467 -0.009160 -0.002027
0.716168 130.455141 52.914068 176.152874 -49.594224 -3.168216 3.403054 28.385577 3.341529 0.481934 5.236937 0.469595 0.778956 8.225746 0.759996 2.552814 22.918515 2.505191 -1.131992 15.156414 -1.178275 -0.912830 -9.826935 -0.971243 0.767466 -3.778063 -0.947236 5.921574 -15.105990 -3.561026 33.532808 -74.372877 -24.695023 15.504581 0.057020 -39.600353 -9.276249 -5.767906 0.248017 4.141987 -14.815456 -1.825525 17.158689 -68.387916 -36.792606 -5.555867 -23.799424 44.523625 6.063192 -28.091344 1.031641 -76.394313 83.880929 -79.512790 0.579464 -25.906865 9.288807 0.004164 -0.017681 0.002434 -0.662023 -23.300293 -2.684182 107.671601 78.138858 116.056509 5.486626 -16.717329 -5.620212 0.000846 -0.013253 0.000495
0.715364 130.459879 52.896536 176.158558 -49.549785 -3.170371 3.416209 28.436420 3.342749 0.484244 5.247199 0.469922 0.782481 8.240721 0.760449 2.560639 22.934679 2.505306 -1.034655 15.089190 -1.150987 -0.817134 -9.898514 -0.964284 0.687408 -3.739672 -1.011811 5.564534 -14.882202 -3.319750 37.446529 -75.193829 -28.714873 15.643271 -0.019234 -39.552761 -9.128777 -5.796703 0.317768 4.586771 -14.691664 -1.936036 18.240620 -69.627725 -38.186558 -5.790221 -23.522446 44.322152 6.077680 -28.128155 1.008971 -76.316769 83.884156 -79.417855 0.574400 -25.909986 9.294235 0.002577 -0.025384 0.001506 -0.671941 -23.342586 -2.689345 107.683193 78.149372 116.070534 5.485785 -16.695084 -5.619383 0.003500 -0.022487 0.002046
0.712740 130.456112 52.884120 176.168219 -49.452877 -3.170316 3.424849 28.437595 3.336368 0.475096 5.201661 0.472173 0.798306 8.304486 0.759167 2.572261 22.945744 2.507579 -0.904253 15.052118 -1.120858 -0.687849 -9.938652 -0.961892 0.607720 -3.716340 -1.073568 5.196935 -14.651125 -3.083362 41.517506 -75.909433 -32.908294 15.789520 -0.063177 -39.489905 -8.989150 -5.844374 0.391740 4.959612 -14.593172 -2.021300 19.295457 -70.799272 -39.478032 -6.008811 -23.233553 44.091968 6.080826 -28.221774 0.984162 -76.248977 83.886687 -79.343769 0.568047 -25.910462 9.293202 0.003649 -0.024664 0.002133 -0.689027 -23.438817 -2.711679 107.674455 78.138517 116.060083 5.493978 -16.685675 -5.612671 -0.008732 -0.022360 -0.005104
0.707102 130.448077 52.873137 176.180966 -49.325948 -3.161949 3.430013 28.413095 3.319331 0.483589 5.231750 0.472222 0.781556 8.229198 0.762215 2.604309 23.006291 2.513115 -0.742264 15.042602 -1.091300 -0.525842 -9.949950 -0.967273 0.530068 -3.708757 -1.133002 4.834760 -14.414132 -2.856981 45.666575 -76.520231 -37.205544 15.928831 -0.056496 -39.401530 -8.862783 -5.907557 0.466678 5.241028 -14.521561 -2.072217 20.341475 -71.898557 -40.664318 -6.202594 -22.935036 43.840327 6.099798 -28.339696 0.940561 -76.131527 83.901862 -79.212641 0.544292 -25.904989 9.293992 0.008001 -0.026054 0.004678 -0.697911 -23.562678 -2.745360 107.667006 78.129653 116.059093 5.526965 -16.671339 -5.592436 -0.043750 -0.032257 -0.025573
0.701448 130.446248 52.855129 176.193142 -49.224033 -3.152392 3.442348 28.415548 3.307130 0.494842 5.259399 0.472994 0.759621 8.153468 0.763813 2.645585 23.056129 2.524343 -0.552894 15.056517 -1.066050 -0.334573 -9.936514 -0.983420 0.453612 -3.713462 -1.192153 4.492965 -14.173142 -2.644529 49.824597 -77.033172 -41.540597 16.060888 0.014936 -39.278437 -8.750931 -5.982830 0.539252 5.416905 -14.473177 -2.082726 21.394152 -72.929423 -41.754654 -6.368271 -22.631343 43.587687 6.130976 -28.428536 0.911490 -76.115870 83.886102 -79.178265 0.522191 -25.918978 9.293631 0.023922 -0.018533 0.013986 -0.705800 -23.647911 -2.781051 107.655658 78.133592 116.060105 5.602946 -16.674406 -5.594351 -0.092007 -0.031982 -0.053781
0.694227 130.441574 52.837939 176.210980 -49.100109 -3.142305 3.448779 28.395865 3.289986 0.499566 5.257081 0.474917 0.763836 8.158663 0.766017 2.672433 23.041340 2.537273 -0.339614 15.089717 -1.047441 -0.117084 -9.902513 -1.012014 0.379757 -3.726023 -1.251409 4.182970 -13.929224 -2.452171 53.939974 -77.451432 -45.866631 16.187963 0.149084 -39.107132 -8.654654 -6.063371 0.609268 5.496162 -14.439620 -2.053894 22.429121 -73.896406 -42.737809 -6.504145 -22.331619 43.345750 6.154978 -28.544700 0.869737 -76.155326 83.879287 -79.204765 0.513062 -25.930238 9.289499 0.036739 -0.014145 0.021480 -0.715573 -23.767311 -2.800496 107.732211 78.150256 116.154355 5.674078 -16.664912 -5.587110 -0.143895 -0.045938 -0.084100
